# xmcd
#
# Track frame offsets:
#	150
#	21321
#	37314
#	56677
#	72341
#	105545
#	131245
#	149756
#	184810
#	206311
#	229429
#	246285
#	256637
#	277699
#	292854
#	305522
#	324927
#
# Disc length: 4797 seconds
#
# Revision: 0
# Processed by: cddbd v1.4PL0 Copyright (c) Steve Scherf et al.
# Submitted via: EasyCDDAExtractor 4.5.0.2
#
DISCID=0212bb11
DTITLE=Omaha Blues Society - Deep Blue
DYEAR=2003
DGENRE=Blues
TTITLE0=Indigenous - Waitin'
TTITLE1=The Mighty Jailbreakers - Heart Made Out Of Stone
TTITLE2=The Kris Lager Band - Low Down
TTITLE3=Nick Holt - Yak Yak
TTITLE4=Dave Barger w/ The Omaha Blues Society All-Stars - My Head To My Big F
TTITLE4=eet
TTITLE5=Satellite Blues Band - I Don't Care
TTITLE6=The Johnsen Brothers - Strange Love Affair
TTITLE7=The Omaha Blues Society All-Stars - My Dog
TTITLE8=OK Sisters Band - Let Her Cry
TTITLE9=John Crews Blues - King Of Broken Hearts
TTITLE10=Blue House with The Rent To Own Horns - How Big You Gonna Get?
TTITLE11=The Mezcal Brothers - Rock Boppin Baby
TTITLE12=The Heart Murmurs - Same Old Blues
TTITLE13=Sean Benjamin - Whippin' Boy
TTITLE14=Gunnar Guennette - Love Me Once Again
TTITLE15=Magic Slim - What's Wrong?
TTITLE16=Baby Jason and The Spankers - Party All Night
EXTD=
EXTT0=
EXTT1=
EXTT2=
EXTT3=
EXTT4=
EXTT5=
EXTT6=
EXTT7=
EXTT8=
EXTT9=
EXTT10=
EXTT11=
EXTT12=
EXTT13=
EXTT14=
EXTT15=
EXTT16=
PLAYORDER=
